<?xml version="1.0" encoding="utf-8" ?><svg xmlns="http://www.w3.org/2000/svg" xmlns:xlink="http://www.w3.org/1999/xlink" width="534" height="534" viewBox="0 0 534 534"><path fill="#6A7FFF" d="M173.439 138.845C187.887 138.144 194.092 141.971 207.029 146.425L249.936 161.571C291.908 176.614 333.734 191.933 375.243 208.21C390.766 214.62 406.609 220.025 421.891 227.107C442.099 236.472 469.947 245.224 483.857 263.178C494.584 277.025 489.986 294.969 480.933 308.204C470.784 323.728 454.698 328.038 437.338 330.383C415.777 333.294 394.281 338.065 372.984 342.559C366.485 344.177 354.562 345.481 349.229 349.383C343.918 353.268 340.975 372.55 339.899 378.798C336.577 392.897 333.809 407.45 331.229 421.714C328.902 434.573 327.888 448.197 323.708 460.618C317.55 478.921 295.235 494.218 275.784 491.616C258.267 489.286 247.944 473.104 240.79 458.476C228.828 434.015 218.62 408.589 208.57 383.288C191.858 341.064 176.36 298.37 160.936 255.665L147.392 217.446C142.994 204.882 137.395 193.001 136.69 179.539C135.652 159.738 153.207 139.374 173.439 138.845Z"/><path fill="#6A7FFF" d="M43.1495 30.3437C48.1787 30.5386 50.8272 32.9494 54.1866 36.3627C56.324 38.5343 58.5094 40.7181 60.6576 42.8817L78.0802 60.3374L97.3002 79.5196C100.566 82.772 104.762 86.4836 107.625 90.0036C114.175 98.0563 108.563 106.737 99.3993 108.405C93.23 108.368 88.547 102.331 84.5288 98.3092L69.4669 83.2441L47.2839 61.0593C43.0337 56.8157 38.548 52.6108 34.6571 48.0566C31.6107 44.491 31.6693 38.6654 34.4966 34.9716C36.8469 31.9009 39.4829 30.8786 43.1495 30.3437Z"/><path fill="#6A7FFF" d="M92.6722 231.862C95.464 231.601 97.0643 231.679 99.7722 232.93C106.695 236.127 108.147 244.958 102.94 250.447C100.683 252.826 97.9118 255.566 95.3683 258.101L78.9622 274.504L60.3729 293.102C56.4414 297.032 50.8682 303.842 45.5696 305.201C37.4959 307.506 29.2563 296.883 33.2199 289.914C35.8617 285.269 42.4518 279.482 46.414 275.523L65.0929 256.859L79.2049 242.72C83.4522 238.46 86.9072 233.908 92.6722 231.862Z"/><path fill="#6A7FFF" d="M289.911 37.0703C298.102 36.4804 304.523 42.4264 302.656 50.6073C301.592 55.2707 293.978 61.7534 290.488 65.2425L273.561 82.1637L262.694 93.0244C258.669 97.0546 255.835 100.885 250.127 102.356C242.102 104.038 234.24 93.626 238.416 86.6875C241.043 82.324 247.042 77.0432 250.763 73.339L266.304 57.7911L277.978 46.1069C281.678 42.4069 284.688 38.3812 289.911 37.0703Z"/><path fill="#6A7FFF" d="M170.061 30.5559C176.612 29.8651 183.013 34.0808 183.29 40.7151C183.793 52.7891 183.516 65.3457 183.426 77.4472C183.379 83.6576 180.451 87.1497 174.8 89.3532C171.889 90.0873 169.864 89.5548 167.166 88.4226C165.225 87.6075 162.142 84.5271 161.78 82.5116C160.383 74.7374 161.309 65.0878 161.057 57.0724C161.122 51.6363 160.925 46.1843 161.176 40.755C161.436 35.1257 164.946 31.9928 170.061 30.5559Z"/><path fill="#6A7FFF" d="M42.946 158.393L67.5996 158.447C70.6819 158.438 78.4583 158.074 81.1481 158.687C93.6674 161.542 93.3942 178.056 79.805 180.483C77.271 180.678 73.5723 180.715 70.9871 180.597C61.9814 180.188 50.0956 181.391 41.4223 180.158C29.644 178.483 28.6944 159.613 42.946 158.393Z"/></svg>